<?xml version="1.0" standalone="no"?>
<!DOCTYPE svg PUBLIC "-//W3C//DTD SVG 20010904//EN"
 "http://www.w3.org/TR/2001/REC-SVG-20010904/DTD/svg10.dtd">
<svg version="1.0" xmlns="http://www.w3.org/2000/svg"
 width="474.000000pt" height="420.000000pt" viewBox="0 0 474.000000 420.000000"
 preserveAspectRatio="xMidYMid meet">
<metadata>
Created by potrace 1.16, written by Peter Selinger 2001-2019
</metadata>
<g transform="translate(0.000000,420.000000) scale(0.100000,-0.100000)"
fill="#000000" stroke="none">
<path d="M2110 3679 c-6 -10 -10 -49 -10 -88 0 -64 2 -71 20 -71 15 0 20 7 20
25 0 35 25 32 40 -5 8 -18 20 -30 31 -30 22 0 23 6 5 39 -12 22 -11 28 6 51
24 33 11 77 -24 84 -67 14 -79 13 -88 -5z"/>
<path d="M2332 3612 c-7 -32 -12 -66 -12 -75 0 -52 96 -79 124 -34 23 36 40
127 27 140 -16 16 -28 0 -43 -63 -11 -48 -16 -55 -38 -55 -27 0 -28 5 -19 100
3 29 0 40 -11 42 -12 3 -19 -11 -28 -55z"/>
<path d="M1526 3611 c-3 -5 -1 -23 5 -40 15 -43 7 -48 -34 -17 -32 24 -77 35
-77 19 0 -28 54 -163 65 -163 23 0 26 16 10 54 -8 19 -15 38 -15 41 0 13 21 2
59 -30 24 -19 48 -32 56 -28 19 7 20 5 -12 96 -25 70 -43 91 -57 68z"/>
<path d="M2583 3575 c-12 -8 -26 -30 -33 -49 -21 -65 25 -120 97 -114 52 4 53
32 0 36 -26 2 -42 10 -53 28 -15 22 -15 26 0 49 20 31 58 33 85 4 12 -13 26
-19 35 -16 23 9 20 22 -15 51 -35 30 -83 34 -116 11z"/>
<path d="M1213 3476 c-37 -32 -39 -93 -4 -130 37 -39 100 -37 135 5 35 41 34
83 -3 120 -38 37 -88 39 -128 5z"/>
<path d="M1691 3316 c-73 -25 -116 -54 -126 -87 -3 -9 -20 -22 -37 -28 -40
-14 -46 -8 -12 13 52 35 14 26 -67 -15 -131 -65 -216 -126 -322 -228 -187
-181 -292 -360 -353 -606 -35 -137 -44 -368 -20 -505 22 -124 76 -284 131
-387 116 -219 326 -424 550 -536 684 -342 1510 -7 1762 713 51 145 67 247 68
425 0 129 2 162 14 171 13 10 9 44 -33 265 -26 139 -49 256 -51 259 -4 6 -237
-14 -300 -25 -25 -4 -23 -1 14 16 25 12 62 24 83 27 21 2 38 7 38 10 0 14 -90
119 -155 181 -103 97 -181 152 -310 216 -187 94 -379 138 -590 135 -66 -1
-140 1 -165 4 -33 5 -65 0 -119 -18z m234 -138 c54 -89 111 -214 121 -266 6
-27 3 -30 -33 -36 -21 -3 -52 -9 -68 -12 -30 -6 -31 -4 -54 63 -29 84 -100
221 -142 274 -17 22 -29 42 -26 46 11 10 72 21 111 20 38 -2 40 -5 91 -89z
m225 60 c33 -17 52 -36 72 -73 28 -50 73 -173 67 -179 -2 -2 -40 -18 -84 -36
-44 -18 -85 -34 -91 -36 -6 -3 -21 23 -34 58 -25 69 -87 195 -119 243 -26 38
-16 45 74 45 54 0 82 -5 115 -22z m-410 -123 c39 -59 119 -235 120 -261 0 -13
-112 -33 -239 -42 l-86 -7 -9 -42 c-9 -41 -11 -43 -47 -43 l-37 0 -7 85 c-4
46 -6 116 -3 154 3 61 7 74 33 102 17 17 48 40 70 52 43 22 146 66 156 67 4 0
26 -29 49 -65z m668 -167 c-4 -12 -33 -28 -128 -71 -213 -96 -424 -148 -645
-159 -48 -2 -60 0 -60 12 0 11 18 17 70 23 151 16 315 50 425 86 130 44 237
91 266 119 15 15 25 17 47 9 15 -5 26 -14 25 -19z m52 -54 c0 -22 -18 -35
-120 -88 -89 -46 -217 -94 -323 -122 -171 -45 -454 -71 -445 -41 3 6 22 13 44
14 303 19 622 112 799 232 36 25 45 26 45 5z m-146 -181 c3 -10 8 -36 11 -58
4 -22 33 -92 66 -156 98 -195 107 -273 37 -347 -76 -80 -325 -152 -526 -152
-125 0 -165 13 -216 72 -47 53 -65 53 -39 -1 20 -40 65 -75 124 -97 50 -19
222 -22 304 -5 54 10 59 8 70 -27 6 -20 -2 -32 -44 -73 -57 -55 -54 -55 -226
-23 -115 21 -172 42 -211 77 -49 42 -62 73 -74 174 -6 48 -16 116 -23 150 -11
58 -15 64 -58 91 -45 29 -79 80 -79 120 0 22 24 52 42 52 20 0 76 -69 93 -115
16 -41 21 -45 51 -45 19 0 34 3 34 8 0 4 -9 50 -20 102 -11 52 -20 100 -20
106 0 6 47 15 113 22 157 17 323 53 452 100 129 47 132 47 139 25z m894 -209
c24 -125 42 -228 40 -229 -6 -7 -141 -55 -152 -55 -8 0 -28 83 -56 228 -24
125 -45 237 -48 249 -5 24 12 28 118 31 l56 2 42 -226z m-250 159 c29 -138 85
-453 81 -456 -8 -8 -599 -114 -599 -108 0 3 13 19 30 34 64 61 60 150 -13 310
-39 86 -40 90 -21 100 18 11 54 15 150 16 33 0 46 6 62 26 11 14 22 30 24 35
2 7 235 84 270 89 3 1 11 -20 16 -46z m-1548 -408 c0 -18 24 -31 77 -40 36 -6
43 -11 48 -36 8 -36 12 -31 -45 -59 -25 -12 -57 -34 -72 -48 -25 -23 -28 -32
-28 -94 0 -46 -4 -70 -12 -73 -24 -9 -561 -106 -564 -102 -8 8 -24 113 -30
201 l-7 92 174 49 c96 27 233 65 304 86 149 43 155 44 155 24z m1528 -202 c57
-143 63 -232 22 -313 -10 -19 -26 -43 -37 -52 -25 -22 -98 -55 -144 -63 l-37
-7 -7 74 c-4 40 -13 102 -21 137 -8 35 -12 66 -10 68 2 3 14 -1 26 -7 12 -6
24 -10 26 -7 2 2 -32 45 -76 96 -44 51 -80 96 -80 99 0 8 266 61 290 59 9 -1
29 -36 48 -84z m-1387 -25 c9 -57 28 -94 71 -135 48 -46 106 -68 258 -98 180
-35 191 -41 212 -136 21 -95 22 -119 4 -119 -9 0 -16 17 -21 48 -14 102 -70
162 -150 162 -65 0 -122 -48 -148 -124 -4 -12 -245 104 -284 138 -24 20 -34
40 -42 79 -13 64 -17 170 -7 185 10 16 78 52 91 48 5 -1 13 -23 16 -48z m731
-45 c40 -43 58 -87 58 -143 0 -54 -7 -61 -34 -31 -40 44 -111 28 -140 -33 -22
-47 -20 -51 14 -26 16 12 42 22 56 23 31 2 38 -15 49 -118 l7 -64 -38 -10
c-99 -26 -88 -33 -108 71 -9 51 -25 105 -34 120 -16 27 -15 29 4 42 12 8 34
32 49 52 23 30 29 47 27 81 -1 37 2 45 21 53 34 14 41 12 69 -17z m315 12 c26
-18 57 -110 78 -229 28 -164 18 -205 -57 -224 l-37 -10 -6 56 c-18 183 -39
272 -91 388 -3 6 10 16 28 21 47 15 61 15 85 -2z m-155 -75 c43 -87 79 -246
77 -342 l-2 -63 -7 73 c-3 41 -11 77 -16 80 -6 4 -16 32 -23 63 -6 31 -17 64
-24 73 -10 13 -12 -1 -10 -71 l2 -88 -14 90 c-18 112 -41 190 -67 233 l-21 33
34 -3 c31 -3 37 -9 71 -78z m-1090 -144 c50 -63 158 -237 158 -255 0 -6 -18
-11 -41 -11 -47 0 -47 -2 2 -101 44 -87 96 -251 114 -357 24 -140 25 -138 -68
-98 -124 55 -127 57 -127 124 0 31 -3 67 -6 79 -5 18 -1 25 18 32 29 11 38 47
38 157 0 61 -3 74 -21 85 -17 11 -21 27 -25 87 -5 88 -33 177 -54 177 -8 0
-14 -7 -12 -15 2 -8 6 -70 9 -139 l6 -124 -54 5 c-67 7 -160 40 -212 73 -44
30 -44 33 -1 160 27 80 86 147 150 170 58 22 74 16 126 -49z m154 -85 c31 -19
101 -125 158 -238 32 -65 32 -73 1 -73 -21 0 -32 14 -75 100 -27 55 -68 129
-90 165 -22 36 -36 65 -32 65 4 0 21 -9 38 -19z m483 -22 c19 -21 48 -125 38
-135 -7 -8 -120 -21 -232 -29 l-100 -6 -33 56 c-19 31 -32 58 -29 61 2 2 42
-13 89 -35 128 -59 129 -59 117 -19 -14 50 -11 64 17 97 22 26 33 31 69 31 32
0 50 -6 64 -21z m480 -179 c21 -162 6 -355 -33 -455 -9 -22 -14 -29 -11 -15
14 59 17 257 6 312 l-12 57 -57 -20 c-186 -64 -358 -93 -564 -93 -108 -1 -168
-5 -168 -11 0 -6 11 -54 24 -107 14 -52 28 -134 32 -181 6 -83 6 -86 -13 -81
-18 5 -22 19 -32 97 -15 112 -51 257 -91 367 -35 95 -34 90 -15 90 8 0 28 -27
45 -60 l30 -60 75 0 c84 0 86 2 59 65 -8 20 -14 39 -12 41 2 1 62 8 133 14
131 11 278 37 370 65 28 8 54 15 59 15 5 0 6 -25 4 -55 -3 -31 -2 -58 2 -60 4
-2 32 3 62 11 l56 16 7 71 c11 121 27 112 44 -23z m-1299 -99 c36 -12 100 -25
144 -28 l78 -6 -6 -55 c-4 -31 -8 -58 -11 -60 -2 -2 -43 1 -92 8 -102 13 -218
58 -255 98 -49 53 -81 110 -74 136 l6 24 72 -48 c40 -26 102 -57 138 -69z
m1223 -143 c10 -123 -27 -329 -62 -347 -63 -34 -326 -57 -456 -41 -143 18
-132 9 -140 103 -6 75 -29 210 -41 241 -4 10 30 14 153 19 163 7 337 36 458
75 33 11 65 20 71 21 7 1 13 -28 17 -71z m-1147 -45 l82 -15 6 -37 c8 -52 7
-101 -2 -101 -16 0 -89 57 -154 120 -49 48 -58 60 -38 55 14 -3 62 -13 106
-22z"/>
<path d="M1896 2289 c-17 -19 -26 -42 -25 -62 0 -29 1 -30 9 -9 12 27 12 27
58 -2 108 -71 268 -57 372 34 34 29 34 30 16 45 -17 13 -22 11 -59 -20 -80
-68 -183 -81 -283 -33 -43 20 -54 33 -33 40 14 5 0 38 -16 38 -7 0 -25 -14
-39 -31z"/>
<path d="M3087 3252 c-56 -58 -18 -152 60 -152 47 0 72 16 89 55 38 93 -79
170 -149 97z"/>
<path d="M3283 3059 c-35 -28 -63 -55 -63 -60 0 -23 33 -20 60 6 17 16 33 26
36 22 3 -3 -1 -28 -11 -56 -16 -50 -14 -71 7 -71 16 0 128 93 128 107 0 24
-21 24 -51 -2 -18 -14 -34 -24 -36 -21 -3 3 2 26 11 52 12 35 13 51 5 61 -6 7
-14 13 -18 13 -3 -1 -34 -23 -68 -51z"/>
<path d="M754 3085 c-17 -7 -41 -26 -53 -43 l-21 -30 66 -57 c65 -55 67 -56
86 -38 32 29 50 72 43 103 -12 54 -71 86 -121 65z"/>
</g>
</svg>
