<?xml version="1.0" standalone="no"?>
<!DOCTYPE svg PUBLIC "-//W3C//DTD SVG 20010904//EN"
 "http://www.w3.org/TR/2001/REC-SVG-20010904/DTD/svg10.dtd">
<svg version="1.0" xmlns="http://www.w3.org/2000/svg"
 width="677.000000pt" height="213.000000pt" viewBox="0 0 677.000000 213.000000"
 preserveAspectRatio="xMidYMid meet">

<g transform="translate(0.000000,213.000000) scale(0.100000,-0.100000)"
fill="#000000" stroke="none">
<path d="M1395 1101 c-45 -135 -71 -201 -81 -201 -8 0 -14 -4 -14 -10 0 -5 18
-10 40 -10 22 0 40 5 40 10 0 6 -7 10 -15 10 -18 0 -18 0 -4 56 l11 44 64 0
c60 0 65 -2 74 -25 21 -56 23 -75 6 -75 -9 0 -16 -4 -16 -10 0 -6 30 -10 70
-10 39 0 70 4 70 9 0 5 -7 11 -16 13 -12 2 -37 61 -83 195 -36 105 -69 194
-73 198 -3 3 -36 -84 -73 -194z m74 0 c11 -36 21 -69 21 -73 0 -4 -24 -8 -54
-8 l-54 0 26 80 c14 44 29 76 33 72 3 -4 16 -36 28 -71z"/>
<path d="M3567 1293 c-13 -12 -7 -51 9 -57 17 -7 54 9 54 24 0 33 -42 55 -63
33z"/>
<path d="M1701 1279 c-49 -9 -66 -19 -33 -19 22 0 22 -2 22 -180 0 -153 -2
-180 -15 -180 -8 0 -15 -4 -15 -10 0 -6 27 -10 60 -10 33 0 60 4 60 10 0 6 -4
10 -10 10 -6 0 -10 70 -10 189 0 105 -3 192 -7 194 -5 2 -28 0 -52 -4z"/>
<path d="M2161 1278 c-49 -8 -66 -18 -33 -18 22 0 22 -2 22 -180 0 -153 -2
-180 -15 -180 -8 0 -15 -4 -15 -10 0 -6 27 -10 60 -10 33 0 60 4 60 10 0 6 -4
10 -10 10 -6 0 -10 42 -10 105 0 92 3 108 20 125 50 50 70 15 70 -121 0 -85
-3 -104 -17 -115 -16 -12 -8 -13 52 -13 58 0 67 2 53 12 -13 10 -17 35 -20
124 -2 92 -6 115 -22 132 -25 28 -84 28 -119 1 l-26 -21 -3 78 -3 79 -44 -8z"/>
<path d="M3731 1279 c-49 -9 -66 -19 -33 -19 22 0 22 -2 22 -180 0 -153 -2
-180 -15 -180 -8 0 -15 -4 -15 -10 0 -6 27 -10 60 -10 33 0 60 4 60 10 0 6 -4
10 -10 10 -6 0 -10 70 -10 189 0 105 -3 192 -7 194 -5 2 -28 0 -52 -4z"/>
<path d="M4042 1270 c-51 -31 -66 -93 -37 -149 9 -19 41 -42 95 -70 92 -49
119 -79 102 -117 -15 -32 -56 -47 -110 -41 -52 6 -61 13 -38 30 29 21 17 61
-18 65 -49 6 -62 -42 -23 -82 28 -28 95 -40 147 -26 84 23 117 116 64 180 -15
17 -62 49 -104 70 -60 30 -79 45 -84 66 -15 58 58 101 124 74 30 -13 30 -13
10 -27 -40 -28 -3 -92 38 -67 30 19 27 58 -8 88 -40 33 -109 36 -158 6z"/>
<path d="M4610 1277 c-26 -6 -37 -12 -27 -14 15 -4 17 -21 17 -180 0 -156 -2
-177 -17 -189 -16 -12 -8 -13 52 -13 60 0 68 1 53 13 -16 12 -18 34 -18 205 0
105 -3 191 -7 190 -5 -1 -28 -6 -53 -12z"/>
<path d="M2866 1273 c19 -4 22 -13 28 -80 3 -42 6 -125 6 -185 0 -101 -1 -108
-20 -108 -11 0 -20 -4 -20 -10 0 -5 23 -10 50 -10 28 0 50 5 50 10 0 6 -11 10
-25 10 l-25 0 0 130 c0 72 2 130 4 130 3 0 57 -63 120 -140 64 -77 121 -140
126 -140 6 0 10 73 10 194 0 194 0 195 23 199 12 2 -5 4 -38 4 -33 0 -48 -2
-32 -4 l27 -4 0 -135 c0 -74 -1 -134 -3 -134 -2 0 -55 63 -118 140 -109 133
-116 140 -149 138 -20 0 -26 -2 -14 -5z"/>
<path d="M1890 1153 c-35 -24 -48 -43 -60 -85 -16 -57 -2 -118 36 -155 27 -28
39 -33 81 -33 29 0 58 7 72 16 28 20 61 88 61 129 0 41 -33 109 -61 129 -30
21 -98 21 -129 -1z m97 -19 c25 -38 25 -179 0 -218 -22 -34 -56 -32 -75 4 -17
34 -12 200 7 223 20 25 48 21 68 -9z"/>
<path d="M2478 1140 c-16 -16 -28 -37 -26 -46 4 -23 31 -39 52 -31 22 8 21 53
-1 62 -17 6 -17 7 1 21 28 20 63 17 76 -5 11 -22 14 -112 3 -110 -46 7 -88 -4
-114 -30 -52 -53 -26 -121 46 -121 22 0 43 8 55 20 11 11 22 20 25 20 3 0 5
-9 5 -20 0 -17 7 -20 45 -20 25 0 45 5 45 10 0 6 -7 10 -15 10 -12 0 -15 18
-15 101 0 138 -18 168 -103 169 -41 0 -53 -5 -79 -30z m112 -154 c0 -45 -8
-64 -32 -77 -42 -22 -65 42 -32 89 8 12 26 22 40 22 21 0 24 -5 24 -34z"/>
<path d="M3298 1154 c-48 -25 -51 -94 -4 -94 35 0 46 38 18 61 l-21 16 24 13
c13 7 35 10 48 6 27 -6 37 -30 37 -87 0 -35 -1 -36 -41 -37 -44 -2 -77 -16
-96 -41 -19 -24 -16 -76 5 -94 26 -24 85 -22 108 4 l18 20 8 -20 c6 -17 16
-21 48 -21 22 0 40 5 40 10 0 6 -4 10 -9 10 -5 0 -10 50 -13 112 -4 106 -6
112 -32 135 -32 27 -95 31 -138 7z m99 -175 c-11 -82 -77 -108 -77 -30 0 46
20 71 57 71 24 0 25 -2 20 -41z"/>
<path d="M3575 1163 c-34 -5 -59 -23 -32 -23 15 0 17 -14 17 -120 0 -100 -2
-120 -15 -120 -8 0 -15 -4 -15 -10 0 -6 27 -10 60 -10 33 0 60 4 60 10 0 6 -4
10 -10 10 -6 0 -10 52 -10 135 0 102 -3 135 -12 134 -7 -1 -26 -4 -43 -6z"/>
<path d="M4336 1149 c-21 -16 -26 -28 -24 -53 4 -38 40 -49 58 -17 8 17 7 24
-10 41 -19 19 -19 20 0 30 26 14 55 13 68 -3 6 -7 12 -34 14 -61 l3 -49 -35
-4 c-58 -6 -92 -24 -105 -57 -14 -32 -5 -73 18 -88 24 -16 81 -8 104 14 l23
21 0 -21 c0 -19 5 -22 45 -22 25 0 45 5 45 10 0 6 -7 10 -15 10 -12 0 -15 19
-15 110 0 104 -1 112 -25 135 -32 33 -110 35 -149 4z m109 -166 c-13 -73 -52
-106 -75 -64 -25 47 3 101 52 101 30 0 30 -1 23 -37z"/>
<path d="M4803 1150 c-43 -26 -63 -68 -63 -130 0 -92 42 -140 121 -140 76 0
129 57 129 140 0 119 -96 186 -187 130z m84 2 c34 -21 45 -163 19 -227 -12
-27 -21 -35 -41 -35 -35 0 -55 49 -55 134 0 87 20 136 55 136 6 0 15 -4 22 -8z"/>
<path d="M5077 1160 c-40 -7 -61 -20 -34 -20 15 0 17 -15 17 -120 0 -73 -4
-120 -10 -120 -5 0 -10 -4 -10 -10 0 -6 27 -10 60 -10 33 0 60 4 60 10 0 6 -7
10 -15 10 -12 0 -15 17 -15 89 0 104 10 137 46 153 43 20 54 -7 54 -134 0 -89
-3 -108 -15 -108 -8 0 -15 -4 -15 -10 0 -6 27 -10 60 -10 33 0 60 4 60 10 0 6
-4 10 -9 10 -5 0 -10 51 -12 114 -3 95 -7 118 -23 135 -25 28 -84 28 -120 0
l-26 -20 0 20 c0 12 -3 20 -7 20 -5 -1 -25 -5 -46 -9z"/>
</g>
</svg>
