<svg xmlns="http://www.w3.org/2000/svg" xmlns:xlink="http://www.w3.org/1999/xlink" width="3456" zoomAndPan="magnify" viewBox="0 0 2592 3455.999975" height="4608" preserveAspectRatio="xMidYMid meet" version="1.0"><defs><clipPath id="a816a78ae3"><path d="M 777.601562 1184 L 1814.101562 1184 L 1814.101562 2329 L 777.601562 2329 Z M 777.601562 1184 " clip-rule="nonzero"/></clipPath></defs><rect x="-259.2" width="3110.4" fill="#ffffff" y="-345.599998" height="4147.19997" fill-opacity="1"/><rect x="-259.2" width="3110.4" fill="#ffffff" y="-345.599998" height="4147.19997" fill-opacity="1"/><path fill="#231f20" d="M 1350.933594 2090.804688 C 1350.933594 2091.839844 1350.84375 2092.875 1350.667969 2093.90625 C 1350.492188 2094.9375 1350.226562 2095.964844 1349.875 2096.980469 C 1349.523438 2097.996094 1349.085938 2099.003906 1348.5625 2099.996094 C 1348.039062 2100.988281 1347.429688 2101.960938 1346.742188 2102.917969 C 1346.050781 2103.878906 1345.28125 2104.8125 1344.429688 2105.730469 C 1343.578125 2106.644531 1342.652344 2107.53125 1341.648438 2108.394531 C 1340.648438 2109.253906 1339.574219 2110.085938 1338.429688 2110.890625 C 1337.285156 2111.691406 1336.074219 2112.457031 1334.800781 2113.191406 C 1333.523438 2113.925781 1332.1875 2114.621094 1330.792969 2115.277344 C 1329.398438 2115.9375 1327.953125 2116.550781 1326.453125 2117.128906 C 1324.953125 2117.703125 1323.40625 2118.238281 1321.816406 2118.726562 C 1320.226562 2119.214844 1318.597656 2119.65625 1316.929688 2120.054688 C 1315.261719 2120.453125 1313.566406 2120.800781 1311.839844 2121.101562 C 1310.113281 2121.402344 1308.367188 2121.652344 1306.597656 2121.855469 C 1304.828125 2122.058594 1303.042969 2122.210938 1301.25 2122.3125 C 1299.453125 2122.414062 1297.652344 2122.464844 1295.851562 2122.464844 C 1294.046875 2122.464844 1292.246094 2122.414062 1290.449219 2122.3125 C 1288.65625 2122.210938 1286.875 2122.058594 1285.105469 2121.855469 C 1283.335938 2121.652344 1281.585938 2121.402344 1279.859375 2121.101562 C 1278.132812 2120.800781 1276.4375 2120.453125 1274.769531 2120.054688 C 1273.105469 2119.65625 1271.476562 2119.214844 1269.882812 2118.726562 C 1268.292969 2118.238281 1266.746094 2117.703125 1265.246094 2117.128906 C 1263.746094 2116.550781 1262.300781 2115.9375 1260.90625 2115.277344 C 1259.511719 2114.621094 1258.175781 2113.925781 1256.898438 2113.191406 C 1255.625 2112.457031 1254.414062 2111.691406 1253.269531 2110.890625 C 1252.125 2110.085938 1251.050781 2109.253906 1250.050781 2108.394531 C 1249.046875 2107.53125 1248.121094 2106.644531 1247.269531 2105.730469 C 1246.421875 2104.8125 1245.648438 2103.878906 1244.960938 2102.921875 C 1244.269531 2101.960938 1243.664062 2100.988281 1243.136719 2099.996094 C 1242.613281 2099.003906 1242.175781 2097.996094 1241.824219 2096.980469 C 1241.472656 2095.964844 1241.207031 2094.9375 1241.03125 2093.90625 C 1240.855469 2092.875 1240.765625 2091.839844 1240.765625 2090.804688 C 1240.765625 2089.765625 1240.855469 2088.734375 1241.03125 2087.699219 C 1241.207031 2086.667969 1241.472656 2085.644531 1241.824219 2084.628906 C 1242.175781 2083.609375 1242.613281 2082.605469 1243.136719 2081.613281 C 1243.664062 2080.621094 1244.269531 2079.644531 1244.960938 2078.6875 C 1245.648438 2077.730469 1246.421875 2076.792969 1247.269531 2075.878906 C 1248.121094 2074.964844 1249.046875 2074.078125 1250.050781 2073.214844 C 1251.050781 2072.351562 1252.125 2071.519531 1253.269531 2070.71875 C 1254.414062 2069.917969 1255.625 2069.148438 1256.898438 2068.417969 C 1258.175781 2067.683594 1259.511719 2066.988281 1260.90625 2066.332031 C 1262.300781 2065.671875 1263.746094 2065.054688 1265.246094 2064.480469 C 1266.746094 2063.902344 1268.292969 2063.371094 1269.882812 2062.882812 C 1271.476562 2062.394531 1273.105469 2061.949219 1274.769531 2061.554688 C 1276.4375 2061.15625 1278.132812 2060.808594 1279.859375 2060.507812 C 1281.585938 2060.207031 1283.335938 2059.953125 1285.105469 2059.75 C 1286.875 2059.550781 1288.65625 2059.398438 1290.449219 2059.296875 C 1292.246094 2059.195312 1294.046875 2059.144531 1295.851562 2059.144531 C 1297.652344 2059.144531 1299.453125 2059.195312 1301.25 2059.296875 C 1303.042969 2059.398438 1304.828125 2059.550781 1306.597656 2059.75 C 1308.367188 2059.953125 1310.113281 2060.207031 1311.839844 2060.507812 C 1313.566406 2060.808594 1315.261719 2061.15625 1316.929688 2061.554688 C 1318.597656 2061.949219 1320.226562 2062.394531 1321.816406 2062.882812 C 1323.40625 2063.371094 1324.953125 2063.902344 1326.453125 2064.480469 C 1327.953125 2065.054688 1329.398438 2065.671875 1330.792969 2066.332031 C 1332.1875 2066.988281 1333.523438 2067.683594 1334.800781 2068.417969 C 1336.074219 2069.148438 1337.285156 2069.917969 1338.429688 2070.71875 C 1339.574219 2071.519531 1340.648438 2072.351562 1341.648438 2073.214844 C 1342.652344 2074.078125 1343.578125 2074.964844 1344.429688 2075.878906 C 1345.28125 2076.792969 1346.050781 2077.730469 1346.742188 2078.6875 C 1347.429688 2079.644531 1348.039062 2080.621094 1348.5625 2081.613281 C 1349.085938 2082.605469 1349.523438 2083.609375 1349.875 2084.628906 C 1350.226562 2085.644531 1350.492188 2086.667969 1350.667969 2087.699219 C 1350.84375 2088.734375 1350.933594 2089.765625 1350.933594 2090.804688 Z M 1350.933594 2090.804688 " fill-opacity="1" fill-rule="nonzero"/><g clip-path="url(#a816a78ae3)"><path fill="#ffffff" d="M 1814.078125 1702.960938 C 1814.078125 1416.601562 1582.058594 1184.476562 1295.851562 1184.476562 C 1009.640625 1184.476562 777.601562 1416.601562 777.601562 1702.960938 C 777.601562 1950.824219 951.378906 2158.015625 1183.832031 2209.324219 L 1192.335938 2265.210938 C 1192.335938 2300.074219 1238.664062 2328.347656 1295.804688 2328.347656 C 1352.945312 2328.347656 1399.269531 2300.074219 1399.269531 2265.210938 L 1407.867188 2209.324219 C 1640.230469 2158.015625 1814.078125 1950.824219 1814.078125 1702.960938 Z M 1814.078125 1702.960938 " fill-opacity="1" fill-rule="nonzero"/></g><path fill="#58595b" d="M 1397.671875 2158.128906 L 1382.96875 2254.644531 C 1382.96875 2283.992188 1343.980469 2307.785156 1295.871094 2307.785156 C 1247.761719 2307.785156 1208.777344 2283.992188 1208.777344 2254.644531 L 1194.074219 2158.128906 C 1193.761719 2156.074219 1193.683594 2154.011719 1193.84375 2151.941406 C 1194 2149.871094 1194.386719 2147.84375 1195.007812 2145.863281 C 1195.628906 2143.878906 1196.464844 2141.992188 1197.515625 2140.203125 C 1198.566406 2138.410156 1199.804688 2136.761719 1201.230469 2135.253906 L 1236.101562 2098.398438 C 1237.617188 2096.816406 1239.292969 2095.425781 1241.132812 2094.234375 C 1240.941406 2093.105469 1240.84375 2091.972656 1240.835938 2090.828125 L 1240.835938 1855.867188 C 1250.644531 1869.113281 1271.359375 1878.035156 1295.917969 1878.035156 C 1320.476562 1878.035156 1341.191406 1869.113281 1350.980469 1855.867188 L 1350.980469 2090.804688 C 1350.972656 2091.949219 1350.871094 2093.085938 1350.683594 2094.210938 C 1352.53125 2095.398438 1354.21875 2096.785156 1355.734375 2098.375 L 1390.582031 2135.230469 C 1392.003906 2136.742188 1393.238281 2138.394531 1394.285156 2140.191406 C 1395.332031 2141.984375 1396.160156 2143.875 1396.773438 2145.859375 C 1397.386719 2147.84375 1397.769531 2149.871094 1397.921875 2151.941406 C 1398.074219 2154.015625 1397.988281 2156.074219 1397.671875 2158.128906 Z M 924.832031 1739.953125 C 924.378906 1741.828125 923.800781 1743.660156 923.097656 1745.457031 C 922.394531 1747.25 921.570312 1748.988281 920.628906 1750.671875 C 919.6875 1752.351562 918.632812 1753.960938 917.46875 1755.5 C 916.308594 1757.035156 915.042969 1758.488281 913.683594 1759.851562 C 912.320312 1761.214844 910.871094 1762.476562 909.335938 1763.644531 C 907.800781 1764.808594 906.191406 1765.863281 904.511719 1766.804688 C 902.832031 1767.75 901.097656 1768.574219 899.300781 1769.28125 C 897.507812 1769.984375 895.675781 1770.566406 893.804688 1771.019531 L 865.289062 1777.882812 L 893.804688 1784.746094 C 895.679688 1785.199219 897.511719 1785.777344 899.308594 1786.484375 C 901.101562 1787.191406 902.839844 1788.015625 904.523438 1788.960938 C 906.203125 1789.90625 907.8125 1790.960938 909.351562 1792.128906 C 910.886719 1793.292969 912.335938 1794.5625 913.699219 1795.925781 C 915.0625 1797.292969 916.324219 1798.746094 917.484375 1800.285156 C 918.648438 1801.824219 919.699219 1803.4375 920.640625 1805.121094 C 921.582031 1806.804688 922.402344 1808.546875 923.105469 1810.34375 C 923.808594 1812.140625 924.382812 1813.980469 924.832031 1815.855469 L 931.691406 1844.382812 L 938.550781 1815.855469 C 939.007812 1813.980469 939.585938 1812.144531 940.292969 1810.347656 C 941 1808.550781 941.828125 1806.808594 942.773438 1805.125 C 943.71875 1803.441406 944.773438 1801.832031 945.941406 1800.292969 C 947.109375 1798.757812 948.375 1797.304688 949.742188 1795.941406 C 951.109375 1794.578125 952.5625 1793.3125 954.101562 1792.148438 C 955.640625 1790.984375 957.253906 1789.933594 958.9375 1788.988281 C 960.621094 1788.046875 962.363281 1787.222656 964.160156 1786.519531 C 965.957031 1785.816406 967.792969 1785.242188 969.671875 1784.789062 L 998.160156 1777.925781 L 969.671875 1771.019531 C 967.796875 1770.566406 965.964844 1769.984375 964.171875 1769.28125 C 962.375 1768.574219 960.640625 1767.75 958.957031 1766.804688 C 957.277344 1765.859375 955.667969 1764.808594 954.132812 1763.640625 C 952.597656 1762.476562 951.148438 1761.214844 949.785156 1759.851562 C 948.421875 1758.484375 947.15625 1757.035156 945.992188 1755.5 C 944.828125 1753.960938 943.777344 1752.351562 942.832031 1750.671875 C 941.886719 1748.988281 941.0625 1747.25 940.359375 1745.457031 C 939.652344 1743.660156 939.074219 1741.828125 938.621094 1739.953125 L 931.761719 1711.449219 Z M 1047.988281 1865.773438 C 1047.496094 1867.796875 1046.9375 1869.800781 1046.3125 1871.789062 C 1045.6875 1873.773438 1044.992188 1875.738281 1044.230469 1877.675781 C 1043.46875 1879.617188 1042.644531 1881.527344 1041.75 1883.410156 C 1040.859375 1885.289062 1039.902344 1887.140625 1038.882812 1888.957031 C 1037.867188 1890.773438 1036.785156 1892.554688 1035.644531 1894.296875 C 1034.503906 1896.039062 1033.304688 1897.738281 1032.046875 1899.398438 C 1030.789062 1901.058594 1029.476562 1902.675781 1028.109375 1904.246094 C 1026.742188 1905.816406 1025.320312 1907.339844 1023.847656 1908.8125 C 1022.378906 1910.285156 1020.855469 1911.703125 1019.285156 1913.074219 C 1017.71875 1914.441406 1016.101562 1915.753906 1014.441406 1917.011719 C 1012.78125 1918.269531 1011.082031 1919.46875 1009.339844 1920.613281 C 1007.597656 1921.753906 1005.820312 1922.832031 1004.003906 1923.851562 C 1002.1875 1924.871094 1000.339844 1925.828125 998.457031 1926.71875 C 996.578125 1927.613281 994.667969 1928.441406 992.730469 1929.203125 C 990.792969 1929.964844 988.828125 1930.65625 986.84375 1931.285156 C 984.859375 1931.910156 982.855469 1932.46875 980.828125 1932.957031 L 919.09375 1947.875 L 980.828125 1962.789062 C 982.855469 1963.277344 984.859375 1963.835938 986.84375 1964.464844 C 988.828125 1965.089844 990.792969 1965.785156 992.730469 1966.546875 C 994.667969 1967.308594 996.578125 1968.136719 998.457031 1969.027344 C 1000.339844 1969.921875 1002.1875 1970.875 1004.003906 1971.894531 C 1005.820312 1972.914062 1007.597656 1973.996094 1009.339844 1975.136719 C 1011.082031 1976.277344 1012.78125 1977.476562 1014.441406 1978.734375 C 1016.101562 1979.992188 1017.71875 1981.304688 1019.285156 1982.675781 C 1020.855469 1984.042969 1022.378906 1985.464844 1023.847656 1986.9375 C 1025.320312 1988.410156 1026.742188 1989.933594 1028.109375 1991.503906 C 1029.476562 1993.074219 1030.789062 1994.6875 1032.046875 1996.347656 C 1033.304688 1998.007812 1034.503906 1999.710938 1035.644531 2001.453125 C 1036.785156 2003.195312 1037.867188 2004.976562 1038.882812 2006.792969 C 1039.902344 2008.609375 1040.859375 2010.457031 1041.75 2012.339844 C 1042.644531 2014.222656 1043.46875 2016.132812 1044.230469 2018.070312 C 1044.992188 2020.011719 1045.6875 2021.972656 1046.3125 2023.960938 C 1046.9375 2025.945312 1047.496094 2027.953125 1047.988281 2029.976562 L 1062.894531 2091.742188 L 1077.804688 2029.976562 C 1078.292969 2027.953125 1078.851562 2025.945312 1079.476562 2023.960938 C 1080.105469 2021.972656 1080.796875 2020.011719 1081.558594 2018.070312 C 1082.320312 2016.132812 1083.148438 2014.222656 1084.039062 2012.339844 C 1084.929688 2010.457031 1085.886719 2008.609375 1086.90625 2006.792969 C 1087.925781 2004.976562 1089.003906 2003.195312 1090.144531 2001.453125 C 1091.285156 1999.710938 1092.484375 1998.007812 1093.742188 1996.347656 C 1095 1994.6875 1096.3125 1993.074219 1097.679688 1991.503906 C 1099.046875 1989.933594 1100.46875 1988.410156 1101.941406 1986.9375 C 1103.414062 1985.464844 1104.933594 1984.042969 1106.503906 1982.675781 C 1108.074219 1981.304688 1109.6875 1979.992188 1111.347656 1978.734375 C 1113.007812 1977.476562 1114.707031 1976.277344 1116.449219 1975.136719 C 1118.191406 1973.996094 1119.96875 1972.914062 1121.785156 1971.894531 C 1123.601562 1970.875 1125.449219 1969.921875 1127.332031 1969.027344 C 1129.210938 1968.136719 1131.121094 1967.308594 1133.058594 1966.546875 C 1135 1965.785156 1136.960938 1965.089844 1138.945312 1964.464844 C 1140.929688 1963.835938 1142.9375 1963.277344 1144.960938 1962.789062 L 1206.695312 1947.875 L 1144.960938 1932.957031 C 1142.9375 1932.46875 1140.929688 1931.910156 1138.945312 1931.285156 C 1136.960938 1930.65625 1135 1929.964844 1133.058594 1929.203125 C 1131.121094 1928.441406 1129.210938 1927.613281 1127.332031 1926.71875 C 1125.449219 1925.828125 1123.601562 1924.871094 1121.785156 1923.851562 C 1119.96875 1922.832031 1118.191406 1921.753906 1116.449219 1920.613281 C 1114.707031 1919.46875 1113.007812 1918.269531 1111.347656 1917.011719 C 1109.6875 1915.753906 1108.074219 1914.441406 1106.503906 1913.074219 C 1104.933594 1911.703125 1103.414062 1910.285156 1101.941406 1908.8125 C 1100.46875 1907.339844 1099.046875 1905.816406 1097.679688 1904.246094 C 1096.3125 1902.675781 1095 1901.058594 1093.742188 1899.398438 C 1092.484375 1897.738281 1091.285156 1896.039062 1090.144531 1894.296875 C 1089.003906 1892.554688 1087.925781 1890.773438 1086.90625 1888.957031 C 1085.886719 1887.140625 1084.929688 1885.289062 1084.039062 1883.410156 C 1083.148438 1881.527344 1082.320312 1879.617188 1081.558594 1877.675781 C 1080.796875 1875.738281 1080.105469 1873.773438 1079.476562 1871.789062 C 1078.851562 1869.800781 1078.292969 1867.796875 1077.804688 1865.773438 L 1062.894531 1804.007812 Z M 1446.71875 2033.085938 C 1446.289062 2034.867188 1445.742188 2036.605469 1445.078125 2038.308594 C 1444.410156 2040.011719 1443.632812 2041.660156 1442.738281 2043.257812 C 1441.84375 2044.851562 1440.847656 2046.378906 1439.746094 2047.839844 C 1438.640625 2049.296875 1437.445312 2050.671875 1436.152344 2051.96875 C 1434.859375 2053.261719 1433.484375 2054.460938 1432.027344 2055.5625 C 1430.570312 2056.667969 1429.046875 2057.667969 1427.453125 2058.5625 C 1425.859375 2059.457031 1424.210938 2060.238281 1422.507812 2060.90625 C 1420.804688 2061.574219 1419.066406 2062.125 1417.289062 2062.550781 L 1390.261719 2069.070312 L 1417.289062 2075.613281 C 1419.066406 2076.042969 1420.804688 2076.589844 1422.503906 2077.257812 C 1424.207031 2077.925781 1425.851562 2078.707031 1427.445312 2079.601562 C 1429.039062 2080.496094 1430.566406 2081.496094 1432.023438 2082.597656 C 1433.476562 2083.703125 1434.851562 2084.898438 1436.144531 2086.191406 C 1437.4375 2087.484375 1438.632812 2088.859375 1439.738281 2090.316406 C 1440.839844 2091.773438 1441.839844 2093.300781 1442.730469 2094.894531 C 1443.625 2096.488281 1444.40625 2098.136719 1445.074219 2099.839844 C 1445.742188 2101.539062 1446.289062 2103.277344 1446.71875 2105.054688 L 1453.257812 2132.09375 L 1459.796875 2105.054688 C 1460.226562 2103.277344 1460.773438 2101.539062 1461.441406 2099.839844 C 1462.109375 2098.136719 1462.890625 2096.488281 1463.785156 2094.894531 C 1464.679688 2093.300781 1465.675781 2091.777344 1466.78125 2090.320312 C 1467.882812 2088.863281 1469.082031 2087.488281 1470.371094 2086.195312 C 1471.664062 2084.902344 1473.039062 2083.703125 1474.496094 2082.601562 C 1475.953125 2081.496094 1477.476562 2080.5 1479.070312 2079.605469 C 1480.664062 2078.710938 1482.308594 2077.929688 1484.011719 2077.261719 C 1485.710938 2076.59375 1487.449219 2076.042969 1489.226562 2075.613281 L 1516.160156 2068.980469 L 1489.132812 2062.460938 C 1487.355469 2062.03125 1485.617188 2061.480469 1483.917969 2060.8125 C 1482.214844 2060.144531 1480.566406 2059.363281 1478.972656 2058.46875 C 1477.378906 2057.570312 1475.855469 2056.570312 1474.398438 2055.46875 C 1472.941406 2054.363281 1471.566406 2053.164062 1470.277344 2051.871094 C 1468.984375 2050.578125 1467.785156 2049.199219 1466.683594 2047.742188 C 1465.582031 2046.285156 1464.582031 2044.757812 1463.6875 2043.164062 C 1462.796875 2041.566406 1462.015625 2039.917969 1461.347656 2038.214844 C 1460.679688 2036.515625 1460.132812 2034.773438 1459.707031 2032.996094 L 1453.164062 2005.957031 Z M 1545.269531 1832.007812 C 1544.832031 1833.808594 1544.335938 1835.59375 1543.78125 1837.359375 C 1543.222656 1839.128906 1542.605469 1840.875 1541.929688 1842.597656 C 1541.253906 1844.324219 1540.515625 1846.023438 1539.722656 1847.699219 C 1538.929688 1849.375 1538.082031 1851.019531 1537.175781 1852.636719 C 1536.269531 1854.253906 1535.308594 1855.835938 1534.292969 1857.386719 C 1533.277344 1858.9375 1532.210938 1860.449219 1531.09375 1861.929688 C 1529.972656 1863.40625 1528.804688 1864.84375 1527.589844 1866.242188 C 1526.371094 1867.636719 1525.109375 1868.992188 1523.796875 1870.300781 C 1522.488281 1871.613281 1521.136719 1872.875 1519.738281 1874.09375 C 1518.34375 1875.3125 1516.90625 1876.480469 1515.429688 1877.597656 C 1513.953125 1878.71875 1512.4375 1879.785156 1510.890625 1880.800781 C 1509.339844 1881.816406 1507.757812 1882.777344 1506.140625 1883.683594 C 1504.523438 1884.589844 1502.878906 1885.441406 1501.207031 1886.234375 C 1499.53125 1887.027344 1497.832031 1887.765625 1496.109375 1888.441406 C 1494.382812 1889.117188 1492.636719 1889.734375 1490.871094 1890.292969 C 1489.105469 1890.851562 1487.320312 1891.347656 1485.519531 1891.78125 L 1430.644531 1905.050781 L 1485.519531 1918.316406 C 1487.320312 1918.753906 1489.105469 1919.25 1490.871094 1919.808594 C 1492.636719 1920.363281 1494.382812 1920.980469 1496.109375 1921.660156 C 1497.832031 1922.335938 1499.53125 1923.070312 1501.207031 1923.867188 C 1502.878906 1924.660156 1504.523438 1925.511719 1506.140625 1926.417969 C 1507.757812 1927.324219 1509.339844 1928.285156 1510.890625 1929.300781 C 1512.4375 1930.316406 1513.953125 1931.382812 1515.429688 1932.5 C 1516.90625 1933.621094 1518.34375 1934.789062 1519.738281 1936.007812 C 1521.136719 1937.222656 1522.488281 1938.488281 1523.796875 1939.796875 C 1525.109375 1941.109375 1526.371094 1942.460938 1527.589844 1943.859375 C 1528.804688 1945.257812 1529.972656 1946.695312 1531.09375 1948.171875 C 1532.210938 1949.648438 1533.277344 1951.164062 1534.292969 1952.714844 C 1535.308594 1954.265625 1536.269531 1955.847656 1537.175781 1957.464844 C 1538.082031 1959.082031 1538.929688 1960.726562 1539.722656 1962.402344 C 1540.515625 1964.074219 1541.253906 1965.777344 1541.929688 1967.5 C 1542.605469 1969.226562 1543.222656 1970.972656 1543.78125 1972.738281 C 1544.335938 1974.507812 1544.832031 1976.292969 1545.269531 1978.09375 L 1558.53125 2032.996094 L 1571.792969 1978.09375 C 1572.226562 1976.292969 1572.722656 1974.507812 1573.28125 1972.738281 C 1573.839844 1970.972656 1574.457031 1969.226562 1575.132812 1967.5 C 1575.808594 1965.777344 1576.542969 1964.074219 1577.335938 1962.402344 C 1578.132812 1960.726562 1578.980469 1959.082031 1579.886719 1957.464844 C 1580.792969 1955.847656 1581.753906 1954.265625 1582.769531 1952.714844 C 1583.785156 1951.164062 1584.851562 1949.648438 1585.96875 1948.171875 C 1587.085938 1946.695312 1588.253906 1945.257812 1589.472656 1943.859375 C 1590.691406 1942.460938 1591.953125 1941.109375 1593.261719 1939.796875 C 1594.574219 1938.488281 1595.925781 1937.222656 1597.324219 1936.007812 C 1598.71875 1934.789062 1600.15625 1933.621094 1601.632812 1932.5 C 1603.109375 1931.382812 1604.621094 1930.316406 1606.171875 1929.300781 C 1607.722656 1928.285156 1609.304688 1927.324219 1610.921875 1926.417969 C 1612.535156 1925.511719 1614.179688 1924.660156 1615.855469 1923.867188 C 1617.527344 1923.070312 1619.226562 1922.335938 1620.953125 1921.660156 C 1622.675781 1920.980469 1624.421875 1920.363281 1626.1875 1919.808594 C 1627.957031 1919.25 1629.738281 1918.753906 1631.539062 1918.316406 L 1686.417969 1905.050781 L 1631.539062 1891.78125 C 1629.738281 1891.34375 1627.953125 1890.847656 1626.183594 1890.289062 C 1624.414062 1889.730469 1622.667969 1889.109375 1620.941406 1888.429688 C 1619.214844 1887.753906 1617.515625 1887.015625 1615.839844 1886.21875 C 1614.164062 1885.421875 1612.515625 1884.570312 1610.898438 1883.660156 C 1609.28125 1882.75 1607.699219 1881.789062 1606.148438 1880.769531 C 1604.597656 1879.753906 1603.082031 1878.683594 1601.605469 1877.558594 C 1600.128906 1876.4375 1598.691406 1875.265625 1597.292969 1874.046875 C 1595.894531 1872.824219 1594.542969 1871.558594 1593.230469 1870.246094 C 1591.921875 1868.929688 1590.660156 1867.574219 1589.441406 1866.171875 C 1588.226562 1864.773438 1587.058594 1863.332031 1585.9375 1861.851562 C 1584.820312 1860.371094 1583.753906 1858.851562 1582.742188 1857.300781 C 1581.726562 1855.746094 1580.769531 1854.160156 1579.863281 1852.539062 C 1578.957031 1850.917969 1578.109375 1849.269531 1577.316406 1847.589844 C 1576.527344 1845.914062 1575.792969 1844.210938 1575.117188 1842.480469 C 1574.441406 1840.753906 1573.828125 1839.003906 1573.273438 1837.234375 C 1572.71875 1835.460938 1572.226562 1833.675781 1571.792969 1831.871094 L 1558.53125 1776.96875 Z M 1477.769531 1803.960938 C 1477.109375 1803.960938 1476.449219 1803.992188 1475.789062 1804.058594 C 1475.132812 1804.121094 1474.480469 1804.21875 1473.832031 1804.347656 C 1473.179688 1804.476562 1472.539062 1804.636719 1471.90625 1804.832031 C 1471.273438 1805.023438 1470.652344 1805.246094 1470.042969 1805.5 C 1469.429688 1805.75 1468.835938 1806.035156 1468.25 1806.347656 C 1467.667969 1806.65625 1467.101562 1806.996094 1466.550781 1807.363281 C 1466.003906 1807.730469 1465.472656 1808.125 1464.960938 1808.546875 C 1464.449219 1808.964844 1463.960938 1809.410156 1463.492188 1809.875 C 1463.023438 1810.34375 1462.582031 1810.835938 1462.160156 1811.34375 C 1461.742188 1811.855469 1461.347656 1812.386719 1460.980469 1812.9375 C 1460.613281 1813.488281 1460.273438 1814.054688 1459.960938 1814.636719 C 1459.652344 1815.222656 1459.367188 1815.820312 1459.117188 1816.429688 C 1458.863281 1817.042969 1458.640625 1817.664062 1458.449219 1818.296875 C 1458.257812 1818.929688 1458.097656 1819.570312 1457.964844 1820.21875 C 1457.835938 1820.867188 1457.742188 1821.523438 1457.675781 1822.179688 C 1457.609375 1822.839844 1457.578125 1823.5 1457.578125 1824.160156 C 1457.578125 1824.820312 1457.609375 1825.480469 1457.675781 1826.140625 C 1457.742188 1826.796875 1457.835938 1827.453125 1457.964844 1828.101562 C 1458.097656 1828.75 1458.257812 1829.390625 1458.449219 1830.023438 C 1458.640625 1830.65625 1458.863281 1831.277344 1459.117188 1831.890625 C 1459.367188 1832.5 1459.652344 1833.097656 1459.960938 1833.683594 C 1460.273438 1834.265625 1460.613281 1834.832031 1460.980469 1835.382812 C 1461.347656 1835.933594 1461.742188 1836.464844 1462.160156 1836.976562 C 1462.582031 1837.484375 1463.023438 1837.976562 1463.492188 1838.445312 C 1463.960938 1838.910156 1464.449219 1839.355469 1464.960938 1839.773438 C 1465.472656 1840.195312 1466.003906 1840.589844 1466.550781 1840.957031 C 1467.101562 1841.324219 1467.667969 1841.664062 1468.25 1841.972656 C 1468.835938 1842.285156 1469.429688 1842.570312 1470.042969 1842.820312 C 1470.652344 1843.074219 1471.273438 1843.296875 1471.90625 1843.488281 C 1472.539062 1843.683594 1473.179688 1843.84375 1473.832031 1843.972656 C 1474.480469 1844.101562 1475.132812 1844.199219 1475.789062 1844.261719 C 1476.449219 1844.328125 1477.109375 1844.359375 1477.769531 1844.359375 C 1478.429688 1844.359375 1479.089844 1844.328125 1479.75 1844.261719 C 1480.40625 1844.199219 1481.058594 1844.101562 1481.707031 1843.972656 C 1482.355469 1843.84375 1482.996094 1843.683594 1483.628906 1843.488281 C 1484.261719 1843.296875 1484.882812 1843.074219 1485.496094 1842.820312 C 1486.105469 1842.570312 1486.703125 1842.285156 1487.285156 1841.976562 C 1487.871094 1841.664062 1488.4375 1841.324219 1488.984375 1840.957031 C 1489.535156 1840.589844 1490.066406 1840.195312 1490.578125 1839.773438 C 1491.089844 1839.355469 1491.578125 1838.910156 1492.046875 1838.445312 C 1492.511719 1837.976562 1492.957031 1837.484375 1493.375 1836.976562 C 1493.796875 1836.464844 1494.1875 1835.933594 1494.558594 1835.382812 C 1494.925781 1834.832031 1495.261719 1834.265625 1495.574219 1833.683594 C 1495.886719 1833.097656 1496.167969 1832.5 1496.421875 1831.890625 C 1496.675781 1831.277344 1496.898438 1830.65625 1497.089844 1830.023438 C 1497.28125 1829.390625 1497.441406 1828.75 1497.570312 1828.101562 C 1497.699219 1827.453125 1497.796875 1826.796875 1497.863281 1826.140625 C 1497.925781 1825.480469 1497.960938 1824.820312 1497.960938 1824.160156 C 1497.960938 1823.5 1497.925781 1822.839844 1497.863281 1822.179688 C 1497.796875 1821.523438 1497.699219 1820.867188 1497.570312 1820.21875 C 1497.441406 1819.570312 1497.28125 1818.929688 1497.089844 1818.296875 C 1496.898438 1817.664062 1496.675781 1817.042969 1496.421875 1816.429688 C 1496.167969 1815.820312 1495.886719 1815.222656 1495.574219 1814.636719 C 1495.261719 1814.054688 1494.925781 1813.488281 1494.558594 1812.9375 C 1494.1875 1812.386719 1493.796875 1811.855469 1493.375 1811.347656 C 1492.957031 1810.835938 1492.511719 1810.34375 1492.046875 1809.875 C 1491.578125 1809.410156 1491.089844 1808.964844 1490.578125 1808.546875 C 1490.066406 1808.125 1489.535156 1807.730469 1488.984375 1807.363281 C 1488.4375 1806.996094 1487.871094 1806.65625 1487.285156 1806.347656 C 1486.703125 1806.035156 1486.105469 1805.75 1485.496094 1805.5 C 1484.882812 1805.246094 1484.261719 1805.023438 1483.628906 1804.832031 C 1482.996094 1804.636719 1482.355469 1804.476562 1481.707031 1804.347656 C 1481.058594 1804.21875 1480.40625 1804.121094 1479.75 1804.058594 C 1479.089844 1803.992188 1478.429688 1803.960938 1477.769531 1803.960938 Z M 1639.292969 1965.558594 C 1638.628906 1965.558594 1637.972656 1965.589844 1637.3125 1965.65625 C 1636.65625 1965.71875 1636 1965.816406 1635.351562 1965.945312 C 1634.703125 1966.074219 1634.0625 1966.234375 1633.429688 1966.425781 C 1632.796875 1966.621094 1632.175781 1966.839844 1631.566406 1967.09375 C 1630.953125 1967.347656 1630.359375 1967.628906 1629.773438 1967.941406 C 1629.191406 1968.253906 1628.625 1968.59375 1628.074219 1968.960938 C 1627.523438 1969.328125 1626.996094 1969.722656 1626.484375 1970.140625 C 1625.972656 1970.5625 1625.484375 1971.003906 1625.015625 1971.472656 C 1624.546875 1971.941406 1624.105469 1972.429688 1623.683594 1972.941406 C 1623.265625 1973.453125 1622.871094 1973.984375 1622.503906 1974.535156 C 1622.136719 1975.085938 1621.796875 1975.652344 1621.484375 1976.234375 C 1621.175781 1976.816406 1620.890625 1977.414062 1620.636719 1978.027344 C 1620.386719 1978.636719 1620.164062 1979.261719 1619.972656 1979.894531 C 1619.777344 1980.527344 1619.617188 1981.167969 1619.488281 1981.816406 C 1619.359375 1982.464844 1619.265625 1983.117188 1619.199219 1983.777344 C 1619.132812 1984.433594 1619.101562 1985.09375 1619.101562 1985.757812 C 1619.101562 1986.417969 1619.132812 1987.078125 1619.199219 1987.738281 C 1619.265625 1988.394531 1619.359375 1989.046875 1619.488281 1989.699219 C 1619.617188 1990.347656 1619.777344 1990.988281 1619.972656 1991.621094 C 1620.164062 1992.253906 1620.386719 1992.875 1620.636719 1993.488281 C 1620.890625 1994.097656 1621.175781 1994.695312 1621.484375 1995.277344 C 1621.796875 1995.863281 1622.136719 1996.429688 1622.503906 1996.980469 C 1622.871094 1997.527344 1623.265625 1998.058594 1623.683594 1998.570312 C 1624.105469 1999.082031 1624.546875 1999.574219 1625.015625 2000.039062 C 1625.484375 2000.507812 1625.972656 2000.953125 1626.484375 2001.371094 C 1626.996094 2001.789062 1627.523438 2002.183594 1628.074219 2002.550781 C 1628.625 2002.917969 1629.191406 2003.257812 1629.773438 2003.570312 C 1630.359375 2003.882812 1630.953125 2004.164062 1631.566406 2004.417969 C 1632.175781 2004.671875 1632.796875 2004.894531 1633.429688 2005.085938 C 1634.0625 2005.277344 1634.703125 2005.4375 1635.351562 2005.566406 C 1636 2005.699219 1636.65625 2005.792969 1637.3125 2005.859375 C 1637.972656 2005.925781 1638.628906 2005.957031 1639.292969 2005.957031 C 1639.953125 2005.957031 1640.613281 2005.925781 1641.269531 2005.859375 C 1641.929688 2005.792969 1642.582031 2005.699219 1643.230469 2005.566406 C 1643.878906 2005.4375 1644.519531 2005.277344 1645.152344 2005.085938 C 1645.785156 2004.894531 1646.40625 2004.671875 1647.019531 2004.417969 C 1647.628906 2004.164062 1648.226562 2003.882812 1648.808594 2003.570312 C 1649.394531 2003.257812 1649.960938 2002.917969 1650.507812 2002.550781 C 1651.058594 2002.183594 1651.589844 2001.789062 1652.101562 2001.371094 C 1652.613281 2000.953125 1653.101562 2000.507812 1653.570312 2000.039062 C 1654.035156 1999.574219 1654.480469 1999.082031 1654.898438 1998.570312 C 1655.320312 1998.058594 1655.710938 1997.527344 1656.078125 1996.980469 C 1656.445312 1996.429688 1656.785156 1995.863281 1657.097656 1995.277344 C 1657.410156 1994.695312 1657.691406 1994.097656 1657.945312 1993.488281 C 1658.199219 1992.875 1658.421875 1992.253906 1658.613281 1991.621094 C 1658.804688 1990.988281 1658.964844 1990.347656 1659.09375 1989.699219 C 1659.222656 1989.046875 1659.320312 1988.394531 1659.386719 1987.738281 C 1659.449219 1987.078125 1659.484375 1986.417969 1659.480469 1985.757812 C 1659.484375 1985.09375 1659.449219 1984.433594 1659.386719 1983.777344 C 1659.320312 1983.117188 1659.222656 1982.464844 1659.09375 1981.816406 C 1658.964844 1981.167969 1658.804688 1980.527344 1658.613281 1979.894531 C 1658.421875 1979.261719 1658.199219 1978.636719 1657.945312 1978.027344 C 1657.691406 1977.414062 1657.410156 1976.820312 1657.097656 1976.234375 C 1656.785156 1975.652344 1656.445312 1975.085938 1656.078125 1974.535156 C 1655.710938 1973.984375 1655.320312 1973.453125 1654.898438 1972.941406 C 1654.480469 1972.429688 1654.035156 1971.941406 1653.570312 1971.472656 C 1653.101562 1971.007812 1652.613281 1970.5625 1652.101562 1970.140625 C 1651.589844 1969.722656 1651.058594 1969.328125 1650.507812 1968.960938 C 1649.960938 1968.59375 1649.394531 1968.253906 1648.808594 1967.941406 C 1648.226562 1967.628906 1647.628906 1967.347656 1647.019531 1967.09375 C 1646.40625 1966.84375 1645.785156 1966.621094 1645.152344 1966.425781 C 1644.519531 1966.234375 1643.878906 1966.074219 1643.230469 1965.945312 C 1642.582031 1965.816406 1641.929688 1965.71875 1641.269531 1965.65625 C 1640.613281 1965.589844 1639.953125 1965.558594 1639.292969 1965.558594 Z M 1154.699219 2032.90625 C 1154.039062 2032.90625 1153.378906 2032.9375 1152.722656 2033 C 1152.0625 2033.066406 1151.410156 2033.164062 1150.761719 2033.292969 C 1150.113281 2033.421875 1149.472656 2033.582031 1148.839844 2033.773438 C 1148.207031 2033.964844 1147.585938 2034.1875 1146.972656 2034.441406 C 1146.363281 2034.695312 1145.765625 2034.976562 1145.183594 2035.289062 C 1144.597656 2035.601562 1144.03125 2035.941406 1143.484375 2036.308594 C 1142.933594 2036.675781 1142.402344 2037.070312 1141.890625 2037.488281 C 1141.378906 2037.910156 1140.890625 2038.351562 1140.421875 2038.820312 C 1139.957031 2039.289062 1139.511719 2039.777344 1139.09375 2040.289062 C 1138.671875 2040.800781 1138.28125 2041.332031 1137.914062 2041.882812 C 1137.546875 2042.433594 1137.207031 2043 1136.894531 2043.582031 C 1136.582031 2044.164062 1136.300781 2044.761719 1136.046875 2045.375 C 1135.792969 2045.984375 1135.570312 2046.609375 1135.378906 2047.242188 C 1135.1875 2047.875 1135.027344 2048.515625 1134.898438 2049.164062 C 1134.769531 2049.8125 1134.671875 2050.464844 1134.605469 2051.125 C 1134.542969 2051.78125 1134.511719 2052.441406 1134.511719 2053.105469 C 1134.511719 2053.765625 1134.542969 2054.425781 1134.605469 2055.085938 C 1134.671875 2055.742188 1134.769531 2056.394531 1134.898438 2057.042969 C 1135.027344 2057.695312 1135.1875 2058.335938 1135.378906 2058.96875 C 1135.570312 2059.601562 1135.792969 2060.222656 1136.046875 2060.835938 C 1136.300781 2061.445312 1136.582031 2062.042969 1136.894531 2062.625 C 1137.207031 2063.210938 1137.546875 2063.777344 1137.914062 2064.328125 C 1138.28125 2064.875 1138.671875 2065.40625 1139.09375 2065.917969 C 1139.511719 2066.429688 1139.957031 2066.917969 1140.421875 2067.386719 C 1140.890625 2067.855469 1141.378906 2068.300781 1141.890625 2068.71875 C 1142.402344 2069.136719 1142.933594 2069.53125 1143.484375 2069.898438 C 1144.03125 2070.265625 1144.597656 2070.605469 1145.183594 2070.917969 C 1145.765625 2071.230469 1146.363281 2071.511719 1146.972656 2071.765625 C 1147.585938 2072.019531 1148.207031 2072.242188 1148.839844 2072.433594 C 1149.472656 2072.625 1150.113281 2072.785156 1150.761719 2072.914062 C 1151.410156 2073.042969 1152.0625 2073.140625 1152.722656 2073.207031 C 1153.378906 2073.269531 1154.039062 2073.304688 1154.699219 2073.304688 C 1155.363281 2073.304688 1156.019531 2073.269531 1156.679688 2073.207031 C 1157.335938 2073.140625 1157.992188 2073.042969 1158.640625 2072.914062 C 1159.289062 2072.785156 1159.929688 2072.625 1160.5625 2072.433594 C 1161.195312 2072.242188 1161.816406 2072.019531 1162.425781 2071.765625 C 1163.039062 2071.511719 1163.636719 2071.230469 1164.21875 2070.917969 C 1164.800781 2070.605469 1165.367188 2070.265625 1165.917969 2069.898438 C 1166.46875 2069.53125 1166.996094 2069.136719 1167.507812 2068.71875 C 1168.019531 2068.300781 1168.507812 2067.855469 1168.976562 2067.386719 C 1169.445312 2066.917969 1169.886719 2066.429688 1170.308594 2065.917969 C 1170.726562 2065.40625 1171.121094 2064.875 1171.488281 2064.328125 C 1171.855469 2063.777344 1172.195312 2063.210938 1172.507812 2062.625 C 1172.816406 2062.042969 1173.101562 2061.445312 1173.355469 2060.835938 C 1173.605469 2060.222656 1173.828125 2059.601562 1174.019531 2058.96875 C 1174.214844 2058.335938 1174.375 2057.695312 1174.503906 2057.042969 C 1174.632812 2056.394531 1174.730469 2055.742188 1174.792969 2055.085938 C 1174.859375 2054.425781 1174.890625 2053.765625 1174.890625 2053.105469 C 1174.890625 2052.441406 1174.859375 2051.78125 1174.792969 2051.125 C 1174.730469 2050.464844 1174.632812 2049.8125 1174.503906 2049.164062 C 1174.375 2048.515625 1174.214844 2047.875 1174.019531 2047.242188 C 1173.828125 2046.609375 1173.605469 2045.984375 1173.355469 2045.375 C 1173.101562 2044.761719 1172.816406 2044.164062 1172.507812 2043.582031 C 1172.195312 2043 1171.855469 2042.433594 1171.488281 2041.882812 C 1171.121094 2041.332031 1170.726562 2040.800781 1170.308594 2040.289062 C 1169.886719 2039.777344 1169.445312 2039.289062 1168.976562 2038.820312 C 1168.507812 2038.351562 1168.019531 2037.910156 1167.507812 2037.488281 C 1166.996094 2037.070312 1166.46875 2036.675781 1165.917969 2036.308594 C 1165.367188 2035.941406 1164.800781 2035.601562 1164.21875 2035.289062 C 1163.636719 2034.976562 1163.039062 2034.695312 1162.425781 2034.441406 C 1161.816406 2034.1875 1161.195312 2033.964844 1160.5625 2033.773438 C 1159.929688 2033.582031 1159.289062 2033.421875 1158.640625 2033.292969 C 1157.992188 2033.164062 1157.335938 2033.066406 1156.679688 2033 C 1156.019531 2032.9375 1155.363281 2032.90625 1154.699219 2032.90625 Z M 993.175781 1817.433594 C 992.515625 1817.433594 991.855469 1817.46875 991.199219 1817.53125 C 990.539062 1817.597656 989.886719 1817.695312 989.238281 1817.824219 C 988.589844 1817.953125 987.949219 1818.113281 987.316406 1818.304688 C 986.683594 1818.496094 986.0625 1818.71875 985.449219 1818.972656 C 984.839844 1819.226562 984.242188 1819.507812 983.660156 1819.820312 C 983.078125 1820.132812 982.511719 1820.472656 981.960938 1820.839844 C 981.410156 1821.207031 980.878906 1821.601562 980.367188 1822.019531 C 979.859375 1822.4375 979.367188 1822.882812 978.902344 1823.351562 C 978.433594 1823.820312 977.988281 1824.308594 977.570312 1824.820312 C 977.152344 1825.332031 976.757812 1825.863281 976.390625 1826.410156 C 976.023438 1826.960938 975.683594 1827.527344 975.371094 1828.113281 C 975.058594 1828.695312 974.777344 1829.292969 974.523438 1829.902344 C 974.269531 1830.515625 974.046875 1831.136719 973.855469 1831.769531 C 973.664062 1832.402344 973.503906 1833.042969 973.375 1833.695312 C 973.246094 1834.34375 973.148438 1834.996094 973.085938 1835.65625 C 973.019531 1836.3125 972.988281 1836.972656 972.988281 1837.632812 C 972.988281 1838.296875 973.019531 1838.957031 973.085938 1839.613281 C 973.148438 1840.273438 973.246094 1840.925781 973.375 1841.574219 C 973.503906 1842.222656 973.664062 1842.863281 973.855469 1843.496094 C 974.046875 1844.132812 974.269531 1844.753906 974.523438 1845.363281 C 974.777344 1845.976562 975.058594 1846.574219 975.371094 1847.15625 C 975.683594 1847.738281 976.023438 1848.304688 976.390625 1848.855469 C 976.757812 1849.40625 977.152344 1849.9375 977.570312 1850.449219 C 977.988281 1850.960938 978.433594 1851.449219 978.902344 1851.917969 C 979.367188 1852.386719 979.859375 1852.828125 980.367188 1853.25 C 980.878906 1853.667969 981.410156 1854.0625 981.960938 1854.429688 C 982.511719 1854.796875 983.078125 1855.136719 983.660156 1855.449219 C 984.242188 1855.761719 984.839844 1856.042969 985.449219 1856.296875 C 986.0625 1856.550781 986.683594 1856.773438 987.316406 1856.964844 C 987.949219 1857.15625 988.589844 1857.316406 989.238281 1857.445312 C 989.886719 1857.574219 990.539062 1857.671875 991.199219 1857.738281 C 991.855469 1857.800781 992.515625 1857.832031 993.175781 1857.832031 C 993.839844 1857.832031 994.5 1857.800781 995.15625 1857.738281 C 995.816406 1857.671875 996.46875 1857.574219 997.117188 1857.445312 C 997.765625 1857.316406 998.40625 1857.15625 999.039062 1856.964844 C 999.671875 1856.773438 1000.292969 1856.550781 1000.902344 1856.296875 C 1001.515625 1856.042969 1002.113281 1855.761719 1002.695312 1855.449219 C 1003.277344 1855.136719 1003.84375 1854.796875 1004.394531 1854.429688 C 1004.945312 1854.0625 1005.476562 1853.667969 1005.984375 1853.25 C 1006.496094 1852.828125 1006.988281 1852.386719 1007.453125 1851.917969 C 1007.921875 1851.449219 1008.363281 1850.960938 1008.785156 1850.449219 C 1009.203125 1849.9375 1009.597656 1849.40625 1009.964844 1848.855469 C 1010.332031 1848.304688 1010.671875 1847.738281 1010.984375 1847.15625 C 1011.296875 1846.574219 1011.578125 1845.976562 1011.832031 1845.363281 C 1012.082031 1844.753906 1012.304688 1844.132812 1012.5 1843.496094 C 1012.691406 1842.863281 1012.851562 1842.222656 1012.980469 1841.574219 C 1013.109375 1840.925781 1013.207031 1840.273438 1013.269531 1839.613281 C 1013.335938 1838.957031 1013.367188 1838.296875 1013.367188 1837.632812 C 1013.367188 1836.972656 1013.335938 1836.3125 1013.269531 1835.65625 C 1013.207031 1834.996094 1013.109375 1834.34375 1012.980469 1833.695312 C 1012.851562 1833.042969 1012.691406 1832.402344 1012.5 1831.769531 C 1012.304688 1831.136719 1012.082031 1830.515625 1011.832031 1829.902344 C 1011.578125 1829.292969 1011.296875 1828.695312 1010.984375 1828.113281 C 1010.671875 1827.527344 1010.332031 1826.960938 1009.964844 1826.410156 C 1009.597656 1825.863281 1009.203125 1825.332031 1008.785156 1824.820312 C 1008.363281 1824.308594 1007.921875 1823.820312 1007.453125 1823.351562 C 1006.988281 1822.882812 1006.496094 1822.4375 1005.984375 1822.019531 C 1005.476562 1821.601562 1004.945312 1821.207031 1004.394531 1820.839844 C 1003.84375 1820.472656 1003.277344 1820.132812 1002.695312 1819.820312 C 1002.113281 1819.507812 1001.515625 1819.226562 1000.902344 1818.972656 C 1000.292969 1818.71875 999.671875 1818.496094 999.039062 1818.304688 C 998.40625 1818.113281 997.765625 1817.953125 997.117188 1817.824219 C 996.46875 1817.695312 995.816406 1817.597656 995.15625 1817.53125 C 994.5 1817.46875 993.839844 1817.433594 993.175781 1817.433594 Z M 1751.011719 1843.011719 C 1751.011719 1842.171875 1750.972656 1841.335938 1750.890625 1840.5 C 1750.808594 1839.667969 1750.683594 1838.835938 1750.523438 1838.015625 C 1750.359375 1837.191406 1750.15625 1836.378906 1749.910156 1835.578125 C 1749.667969 1834.777344 1749.386719 1833.988281 1749.066406 1833.210938 C 1748.746094 1832.4375 1748.386719 1831.679688 1747.992188 1830.941406 C 1747.597656 1830.203125 1747.164062 1829.484375 1746.699219 1828.785156 C 1746.234375 1828.089844 1745.734375 1827.417969 1745.203125 1826.769531 C 1744.671875 1826.121094 1744.109375 1825.5 1743.515625 1824.90625 C 1742.925781 1824.3125 1742.304688 1823.75 1741.65625 1823.21875 C 1741.007812 1822.6875 1740.335938 1822.1875 1739.636719 1821.722656 C 1738.941406 1821.257812 1738.222656 1820.828125 1737.484375 1820.433594 C 1736.746094 1820.035156 1735.988281 1819.679688 1735.214844 1819.359375 C 1734.4375 1819.039062 1733.652344 1818.753906 1732.847656 1818.511719 C 1732.046875 1818.269531 1731.234375 1818.066406 1730.414062 1817.902344 C 1729.589844 1817.738281 1728.761719 1817.617188 1727.929688 1817.535156 C 1727.09375 1817.453125 1726.257812 1817.410156 1725.417969 1817.410156 C 1724.582031 1817.410156 1723.746094 1817.453125 1722.910156 1817.535156 C 1722.078125 1817.617188 1721.25 1817.742188 1720.425781 1817.90625 C 1719.605469 1818.070312 1718.792969 1818.273438 1717.992188 1818.515625 C 1717.1875 1818.761719 1716.402344 1819.042969 1715.625 1819.363281 C 1714.851562 1819.683594 1714.09375 1820.042969 1713.355469 1820.4375 C 1712.617188 1820.835938 1711.898438 1821.265625 1711.203125 1821.730469 C 1710.507812 1822.199219 1709.835938 1822.695312 1709.1875 1823.230469 C 1708.539062 1823.761719 1707.917969 1824.324219 1707.328125 1824.917969 C 1706.734375 1825.511719 1706.171875 1826.132812 1705.640625 1826.78125 C 1705.109375 1827.429688 1704.609375 1828.101562 1704.144531 1828.796875 C 1703.679688 1829.496094 1703.25 1830.214844 1702.855469 1830.953125 C 1702.460938 1831.695312 1702.101562 1832.453125 1701.78125 1833.226562 C 1701.460938 1834 1701.179688 1834.789062 1700.9375 1835.59375 C 1700.695312 1836.394531 1700.492188 1837.207031 1700.328125 1838.03125 C 1700.167969 1838.851562 1700.042969 1839.679688 1699.960938 1840.515625 C 1699.878906 1841.351562 1699.839844 1842.1875 1699.839844 1843.023438 C 1699.839844 1843.863281 1699.882812 1844.699219 1699.964844 1845.535156 C 1700.046875 1846.371094 1700.171875 1847.199219 1700.335938 1848.019531 C 1700.5 1848.84375 1700.703125 1849.65625 1700.945312 1850.457031 C 1701.191406 1851.257812 1701.472656 1852.046875 1701.792969 1852.820312 C 1702.117188 1853.597656 1702.472656 1854.351562 1702.871094 1855.09375 C 1703.265625 1855.832031 1703.695312 1856.550781 1704.164062 1857.246094 C 1704.628906 1857.945312 1705.128906 1858.617188 1705.660156 1859.265625 C 1706.191406 1859.910156 1706.753906 1860.53125 1707.347656 1861.125 C 1707.941406 1861.71875 1708.5625 1862.277344 1709.210938 1862.808594 C 1709.859375 1863.339844 1710.53125 1863.839844 1711.226562 1864.304688 C 1711.925781 1864.769531 1712.644531 1865.199219 1713.382812 1865.59375 C 1714.121094 1865.988281 1714.878906 1866.347656 1715.65625 1866.667969 C 1716.429688 1866.988281 1717.21875 1867.269531 1718.019531 1867.511719 C 1718.820312 1867.753906 1719.632812 1867.957031 1720.457031 1868.121094 C 1721.277344 1868.285156 1722.105469 1868.40625 1722.941406 1868.488281 C 1723.777344 1868.570312 1724.613281 1868.609375 1725.449219 1868.609375 C 1726.289062 1868.609375 1727.121094 1868.566406 1727.957031 1868.484375 C 1728.789062 1868.398438 1729.617188 1868.277344 1730.4375 1868.113281 C 1731.257812 1867.949219 1732.070312 1867.746094 1732.871094 1867.5 C 1733.671875 1867.257812 1734.460938 1866.972656 1735.234375 1866.652344 C 1736.007812 1866.332031 1736.765625 1865.972656 1737.503906 1865.578125 C 1738.242188 1865.183594 1738.957031 1864.753906 1739.652344 1864.285156 C 1740.351562 1863.820312 1741.023438 1863.320312 1741.667969 1862.789062 C 1742.316406 1862.257812 1742.9375 1861.695312 1743.527344 1861.101562 C 1744.121094 1860.511719 1744.679688 1859.890625 1745.210938 1859.242188 C 1745.742188 1858.59375 1746.242188 1857.921875 1746.707031 1857.226562 C 1747.171875 1856.527344 1747.601562 1855.808594 1747.996094 1855.070312 C 1748.390625 1854.332031 1748.746094 1853.574219 1749.066406 1852.800781 C 1749.386719 1852.027344 1749.671875 1851.238281 1749.914062 1850.4375 C 1750.15625 1849.636719 1750.359375 1848.824219 1750.523438 1848 C 1750.6875 1847.179688 1750.808594 1846.351562 1750.890625 1845.519531 C 1750.972656 1844.683594 1751.015625 1843.847656 1751.011719 1843.011719 Z M 1740.242188 1843.011719 C 1740.246094 1843.984375 1740.152344 1844.949219 1739.964844 1845.90625 C 1739.773438 1846.859375 1739.496094 1847.789062 1739.125 1848.6875 C 1738.75 1849.589844 1738.296875 1850.445312 1737.757812 1851.253906 C 1737.214844 1852.066406 1736.601562 1852.816406 1735.914062 1853.503906 C 1735.226562 1854.195312 1734.480469 1854.808594 1733.667969 1855.351562 C 1732.859375 1855.894531 1732.007812 1856.351562 1731.109375 1856.722656 C 1730.207031 1857.097656 1729.28125 1857.378906 1728.328125 1857.570312 C 1727.371094 1857.761719 1726.40625 1857.855469 1725.433594 1857.855469 C 1724.460938 1857.855469 1723.496094 1857.761719 1722.542969 1857.574219 C 1721.585938 1857.382812 1720.660156 1857.101562 1719.761719 1856.730469 C 1718.859375 1856.355469 1718.007812 1855.902344 1717.195312 1855.359375 C 1716.386719 1854.820312 1715.636719 1854.203125 1714.949219 1853.515625 C 1714.261719 1852.828125 1713.648438 1852.078125 1713.105469 1851.265625 C 1712.566406 1850.457031 1712.109375 1849.601562 1711.734375 1848.703125 C 1711.363281 1847.800781 1711.082031 1846.875 1710.894531 1845.917969 C 1710.703125 1844.964844 1710.609375 1844 1710.609375 1843.023438 C 1710.609375 1842.050781 1710.707031 1841.085938 1710.894531 1840.132812 C 1711.085938 1839.175781 1711.367188 1838.25 1711.742188 1837.347656 C 1712.117188 1836.449219 1712.574219 1835.59375 1713.113281 1834.785156 C 1713.65625 1833.976562 1714.269531 1833.226562 1714.960938 1832.539062 C 1715.648438 1831.851562 1716.398438 1831.238281 1717.210938 1830.699219 C 1718.019531 1830.15625 1718.875 1829.703125 1719.773438 1829.332031 C 1720.675781 1828.957031 1721.601562 1828.679688 1722.558594 1828.488281 C 1723.511719 1828.300781 1724.476562 1828.207031 1725.449219 1828.210938 C 1726.421875 1828.210938 1727.382812 1828.308594 1728.335938 1828.496094 C 1729.285156 1828.6875 1730.210938 1828.96875 1731.109375 1829.34375 C 1732.003906 1829.714844 1732.855469 1830.171875 1733.664062 1830.710938 C 1734.472656 1831.25 1735.21875 1831.863281 1735.902344 1832.550781 C 1736.589844 1833.238281 1737.203125 1833.984375 1737.742188 1834.792969 C 1738.285156 1835.601562 1738.738281 1836.453125 1739.113281 1837.351562 C 1739.484375 1838.246094 1739.765625 1839.171875 1739.957031 1840.125 C 1740.144531 1841.078125 1740.242188 1842.039062 1740.242188 1843.011719 Z M 1427.96875 1977.683594 C 1427.96875 1976.84375 1427.925781 1976.007812 1427.84375 1975.171875 C 1427.761719 1974.339844 1427.640625 1973.511719 1427.476562 1972.6875 C 1427.3125 1971.867188 1427.109375 1971.054688 1426.867188 1970.25 C 1426.621094 1969.449219 1426.339844 1968.660156 1426.019531 1967.886719 C 1425.699219 1967.109375 1425.339844 1966.355469 1424.945312 1965.613281 C 1424.550781 1964.875 1424.121094 1964.15625 1423.65625 1963.460938 C 1423.191406 1962.761719 1422.691406 1962.089844 1422.160156 1961.441406 C 1421.628906 1960.792969 1421.066406 1960.171875 1420.472656 1959.582031 C 1419.882812 1958.988281 1419.261719 1958.425781 1418.613281 1957.894531 C 1417.964844 1957.363281 1417.292969 1956.863281 1416.597656 1956.398438 C 1415.898438 1955.929688 1415.179688 1955.5 1414.441406 1955.105469 C 1413.703125 1954.710938 1412.945312 1954.351562 1412.171875 1954.03125 C 1411.398438 1953.710938 1410.609375 1953.429688 1409.808594 1953.1875 C 1409.007812 1952.941406 1408.195312 1952.738281 1407.371094 1952.574219 C 1406.550781 1952.410156 1405.722656 1952.289062 1404.890625 1952.207031 C 1404.054688 1952.125 1403.21875 1952.082031 1402.382812 1952.082031 C 1401.542969 1952.082031 1400.707031 1952.125 1399.875 1952.207031 C 1399.039062 1952.289062 1398.210938 1952.410156 1397.390625 1952.574219 C 1396.566406 1952.738281 1395.753906 1952.941406 1394.953125 1953.1875 C 1394.152344 1953.429688 1393.363281 1953.710938 1392.589844 1954.03125 C 1391.816406 1954.351562 1391.058594 1954.710938 1390.320312 1955.105469 C 1389.582031 1955.5 1388.863281 1955.933594 1388.164062 1956.398438 C 1387.46875 1956.863281 1386.796875 1957.363281 1386.148438 1957.894531 C 1385.5 1958.425781 1384.882812 1958.988281 1384.289062 1959.582031 C 1383.695312 1960.171875 1383.132812 1960.792969 1382.601562 1961.441406 C 1382.070312 1962.089844 1381.570312 1962.761719 1381.105469 1963.460938 C 1380.640625 1964.15625 1380.210938 1964.875 1379.816406 1965.613281 C 1379.421875 1966.355469 1379.0625 1967.109375 1378.742188 1967.886719 C 1378.421875 1968.660156 1378.140625 1969.449219 1377.894531 1970.25 C 1377.652344 1971.054688 1377.449219 1971.867188 1377.285156 1972.6875 C 1377.121094 1973.511719 1377 1974.339844 1376.917969 1975.171875 C 1376.835938 1976.007812 1376.792969 1976.84375 1376.792969 1977.683594 C 1376.792969 1978.519531 1376.835938 1979.355469 1376.917969 1980.191406 C 1377 1981.023438 1377.121094 1981.851562 1377.285156 1982.675781 C 1377.449219 1983.496094 1377.652344 1984.308594 1377.894531 1985.113281 C 1378.140625 1985.914062 1378.421875 1986.703125 1378.742188 1987.476562 C 1379.0625 1988.253906 1379.421875 1989.007812 1379.816406 1989.75 C 1380.210938 1990.488281 1380.640625 1991.207031 1381.105469 1991.902344 C 1381.570312 1992.601562 1382.070312 1993.273438 1382.601562 1993.921875 C 1383.132812 1994.570312 1383.695312 1995.191406 1384.289062 1995.78125 C 1384.882812 1996.375 1385.5 1996.9375 1386.148438 1997.46875 C 1386.796875 1998 1387.46875 1998.5 1388.164062 1998.964844 C 1388.863281 1999.429688 1389.582031 1999.863281 1390.320312 2000.257812 C 1391.058594 2000.652344 1391.816406 2001.011719 1392.589844 2001.332031 C 1393.363281 2001.652344 1394.152344 2001.933594 1394.953125 2002.179688 C 1395.753906 2002.421875 1396.566406 2002.625 1397.390625 2002.789062 C 1398.210938 2002.953125 1399.039062 2003.074219 1399.875 2003.15625 C 1400.707031 2003.238281 1401.542969 2003.28125 1402.382812 2003.28125 C 1403.21875 2003.28125 1404.054688 2003.238281 1404.890625 2003.15625 C 1405.722656 2003.074219 1406.550781 2002.953125 1407.371094 2002.789062 C 1408.195312 2002.625 1409.007812 2002.421875 1409.808594 2002.175781 C 1410.609375 2001.933594 1411.398438 2001.652344 1412.171875 2001.332031 C 1412.945312 2001.011719 1413.703125 2000.652344 1414.441406 2000.257812 C 1415.179688 1999.863281 1415.898438 1999.429688 1416.597656 1998.964844 C 1417.292969 1998.5 1417.964844 1998 1418.613281 1997.46875 C 1419.261719 1996.9375 1419.882812 1996.375 1420.472656 1995.78125 C 1421.066406 1995.191406 1421.628906 1994.570312 1422.160156 1993.921875 C 1422.691406 1993.273438 1423.191406 1992.601562 1423.65625 1991.902344 C 1424.121094 1991.207031 1424.550781 1990.488281 1424.945312 1989.75 C 1425.339844 1989.007812 1425.699219 1988.253906 1426.019531 1987.476562 C 1426.339844 1986.703125 1426.621094 1985.914062 1426.867188 1985.113281 C 1427.109375 1984.308594 1427.3125 1983.496094 1427.476562 1982.675781 C 1427.640625 1981.851562 1427.761719 1981.023438 1427.84375 1980.191406 C 1427.925781 1979.355469 1427.96875 1978.519531 1427.96875 1977.683594 Z M 1417.199219 1977.683594 C 1417.199219 1978.65625 1417.105469 1979.621094 1416.917969 1980.574219 C 1416.730469 1981.53125 1416.449219 1982.457031 1416.078125 1983.359375 C 1415.707031 1984.257812 1415.25 1985.113281 1414.710938 1985.921875 C 1414.171875 1986.734375 1413.558594 1987.484375 1412.871094 1988.171875 C 1412.183594 1988.863281 1411.4375 1989.476562 1410.628906 1990.019531 C 1409.820312 1990.5625 1408.964844 1991.019531 1408.066406 1991.394531 C 1407.167969 1991.765625 1406.242188 1992.050781 1405.289062 1992.242188 C 1404.332031 1992.429688 1403.371094 1992.527344 1402.394531 1992.527344 C 1401.421875 1992.527344 1400.460938 1992.433594 1399.503906 1992.246094 C 1398.550781 1992.058594 1397.621094 1991.777344 1396.722656 1991.40625 C 1395.824219 1991.035156 1394.96875 1990.578125 1394.160156 1990.035156 C 1393.351562 1989.496094 1392.601562 1988.882812 1391.910156 1988.195312 C 1391.222656 1987.507812 1390.609375 1986.757812 1390.066406 1985.949219 C 1389.527344 1985.140625 1389.070312 1984.285156 1388.695312 1983.386719 C 1388.324219 1982.488281 1388.039062 1981.558594 1387.851562 1980.605469 C 1387.660156 1979.648438 1387.566406 1978.6875 1387.5625 1977.710938 C 1387.5625 1976.738281 1387.65625 1975.773438 1387.847656 1974.820312 C 1388.035156 1973.863281 1388.316406 1972.9375 1388.691406 1972.039062 C 1389.0625 1971.136719 1389.519531 1970.28125 1390.058594 1969.472656 C 1390.597656 1968.664062 1391.214844 1967.914062 1391.902344 1967.226562 C 1392.589844 1966.535156 1393.335938 1965.921875 1394.148438 1965.378906 C 1394.957031 1964.839844 1395.808594 1964.382812 1396.710938 1964.011719 C 1397.609375 1963.636719 1398.535156 1963.355469 1399.488281 1963.164062 C 1400.445312 1962.976562 1401.40625 1962.882812 1402.382812 1962.878906 C 1403.351562 1962.882812 1404.316406 1962.976562 1405.265625 1963.167969 C 1406.21875 1963.359375 1407.144531 1963.640625 1408.042969 1964.011719 C 1408.941406 1964.386719 1409.792969 1964.839844 1410.601562 1965.382812 C 1411.410156 1965.921875 1412.15625 1966.535156 1412.84375 1967.222656 C 1413.53125 1967.90625 1414.144531 1968.65625 1414.6875 1969.460938 C 1415.226562 1970.269531 1415.683594 1971.121094 1416.058594 1972.019531 C 1416.429688 1972.917969 1416.714844 1973.839844 1416.90625 1974.792969 C 1417.097656 1975.746094 1417.195312 1976.710938 1417.199219 1977.683594 Z M 1417.199219 1977.683594 " fill-opacity="1" fill-rule="nonzero"/><path fill="#ffffff" d="M 1290.132812 2124.273438 L 1290.132812 2191.023438 L 1301.566406 2191.023438 L 1301.566406 2124.273438 C 1299.691406 2124.386719 1297.769531 2124.453125 1295.851562 2124.453125 C 1293.929688 2124.453125 1292.078125 2124.386719 1290.132812 2124.273438 Z M 1290.132812 2124.273438 " fill-opacity="1" fill-rule="nonzero"/><path fill="#231f20" d="M 1344.851562 1838.367188 C 1344.851562 1853.304688 1322.417969 1865.816406 1295.851562 1865.816406 C 1269.28125 1865.816406 1246.824219 1853.210938 1246.824219 1838.367188 C 1246.824219 1823.519531 1269.28125 1810.914062 1295.851562 1810.914062 C 1322.417969 1810.914062 1344.851562 1823.429688 1344.851562 1838.367188 Z M 1714.109375 1625.367188 L 1729.929688 1619.167969 L 1421.632812 1328.136719 L 1128.816406 1336.625 L 1091.820312 1255.6875 C 1074.28125 1263.730469 1057.269531 1272.773438 1040.789062 1282.808594 C 1024.308594 1292.847656 1008.46875 1303.8125 993.273438 1315.710938 C 978.078125 1327.605469 963.628906 1340.347656 949.925781 1353.9375 C 936.222656 1367.527344 923.363281 1381.871094 911.339844 1396.972656 C 909.070312 1399.808594 906.84375 1402.667969 904.664062 1405.550781 L 1044.625 1685.644531 C 1049.183594 1694.769531 1054.503906 1703.429688 1060.582031 1711.621094 C 1066.664062 1719.8125 1073.410156 1727.410156 1080.820312 1734.417969 L 1101.402344 1753.746094 L 1209.667969 1855.957031 C 1209.667969 1855.957031 1240.859375 1802.152344 1182.230469 1745.328125 C 1178.636719 1741.6875 1174.726562 1738.421875 1170.507812 1735.53125 C 1166.285156 1732.640625 1161.828125 1730.175781 1157.136719 1728.140625 C 1152.445312 1726.105469 1147.601562 1724.535156 1142.605469 1723.425781 C 1137.613281 1722.320312 1132.558594 1721.699219 1127.445312 1721.5625 C 1145.371094 1691.980469 1160.714844 1643.964844 1128.839844 1585.835938 C 1128.839844 1585.835938 1213.695312 1628.890625 1316.109375 1563.808594 C 1378.648438 1524.070312 1397.808594 1467.15625 1403.25 1428.839844 L 1413.585938 1437.484375 C 1408.324219 1475.757812 1389.417969 1533.3125 1326.308594 1573.390625 C 1322.921875 1575.542969 1319.53125 1577.5625 1316.132812 1579.453125 C 1336.847656 1622.164062 1373.707031 1692.300781 1423.027344 1703.238281 C 1403.546875 1711.3125 1385.140625 1737.941406 1371.488281 1768.867188 C 1342.863281 1833.835938 1392.070312 1873.070312 1392.070312 1873.070312 L 1477.289062 1699.1875 L 1404.894531 1558.089844 L 1562.667969 1721.859375 C 1589.949219 1753.886719 1630.328125 1791.425781 1671.441406 1782.386719 L 1687.722656 1778.820312 L 1444.933594 1463.839844 L 1601.335938 1594.734375 C 1633.917969 1622.644531 1674.164062 1641.015625 1714.109375 1625.367188 Z M 1350.910156 1855.867188 C 1341.125 1869.113281 1320.386719 1878.035156 1295.851562 1878.035156 C 1271.316406 1878.035156 1250.574219 1869.113281 1240.765625 1855.867188 L 1240.765625 2090.804688 C 1240.765625 2108.167969 1262.398438 2122.488281 1290.132812 2124.226562 C 1292.007812 2124.339844 1293.90625 2124.410156 1295.851562 2124.410156 C 1297.792969 2124.410156 1299.691406 2124.410156 1301.566406 2124.226562 C 1329.28125 2122.488281 1350.910156 2108.210938 1350.910156 2090.804688 Z M 1282.929688 2282.527344 L 1308.675781 2282.527344 L 1301.816406 2191.023438 L 1289.789062 2191.023438 Z M 1282.929688 2282.527344 " fill-opacity="1" fill-rule="nonzero"/><path fill="#231f20" d="M 1421.632812 1328.136719 L 1406.222656 1411.542969 L 1583.84375 1452.902344 C 1629.804688 1461.4375 1673.269531 1440.460938 1681.777344 1394.480469 Z M 1421.632812 1328.136719 " fill-opacity="1" fill-rule="nonzero"/></svg>